<svg id="visual" viewBox="0 0 900 600" width="900" height="600" xmlns="http://www.w3.org/2000/svg" xmlns:xlink="http://www.w3.org/1999/xlink" version="1.1"><path d="M0 145L25 161C50 177 100 209 150 203C200 197 250 153 300 134C350 115 400 121 450 142C500 163 550 199 600 188C650 177 700 119 750 94C800 69 850 77 875 81L900 85L900 0L875 0C850 0 800 0 750 0C700 0 650 0 600 0C550 0 500 0 450 0C400 0 350 0 300 0C250 0 200 0 150 0C100 0 50 0 25 0L0 0Z" fill="#bae8f7"></path><path d="M0 343L25 344C50 345 100 347 150 336C200 325 250 301 300 318C350 335 400 393 450 403C500 413 550 375 600 350C650 325 700 313 750 315C800 317 850 333 875 341L900 349L900 83L875 79C850 75 800 67 750 92C700 117 650 175 600 186C550 197 500 161 450 140C400 119 350 113 300 132C250 151 200 195 150 201C100 207 50 175 25 159L0 143Z" fill="#81c4e6"></path><path d="M0 445L25 447C50 449 100 453 150 431C200 409 250 361 300 373C350 385 400 457 450 475C500 493 550 457 600 430C650 403 700 385 750 377C800 369 850 371 875 372L900 373L900 347L875 339C850 331 800 315 750 313C700 311 650 323 600 348C550 373 500 411 450 401C400 391 350 333 300 316C250 299 200 323 150 334C100 345 50 343 25 342L0 341Z" fill="#4d9fd6"></path><path d="M0 571L25 565C50 559 100 547 150 521C200 495 250 455 300 460C350 465 400 515 450 532C500 549 550 533 600 506C650 479 700 441 750 422C800 403 850 403 875 403L900 403L900 371L875 370C850 369 800 367 750 375C700 383 650 401 600 428C550 455 500 491 450 473C400 455 350 383 300 371C250 359 200 407 150 429C100 451 50 447 25 445L0 443Z" fill="#2179c3"></path><path d="M0 601L25 601C50 601 100 601 150 601C200 601 250 601 300 601C350 601 400 601 450 601C500 601 550 601 600 601C650 601 700 601 750 601C800 601 850 601 875 601L900 601L900 401L875 401C850 401 800 401 750 420C700 439 650 477 600 504C550 531 500 547 450 530C400 513 350 463 300 458C250 453 200 493 150 519C100 545 50 557 25 563L0 569Z" fill="#1651ab"></path></svg>